
        <svg xmlns="http://www.w3.org/2000/svg" xmlns:xlink="http://www.w3.org/1999/xlink" version="1.1" width="3300" 
        height="2421.096345993192" viewBox="0 0 3300 2421.096345993192">
			
			<g transform="scale(15) translate(10, 10)">
				<defs id="SvgjsDefs5660"><linearGradient id="SvgjsLinearGradient5665"><stop id="SvgjsStop5666" stop-color="#ef4136" offset="0"></stop><stop id="SvgjsStop5667" stop-color="#fbb040" offset="1"></stop></linearGradient></defs><g id="SvgjsG5661" featureKey="symbolFeature-0" transform="matrix(33.01419822479292,0,0,33.01419822479292,17.48101427630708,-33.31132415121328)" fill="url(#SvgjsLinearGradient5665)"><g xmlns="http://www.w3.org/2000/svg"><g><polygon fill="url(#SvgjsLinearGradient5665)" points="2.179,1.009 0.989,2.171 1.872,3.302 2.465,3.292 3.062,2.759 2.767,2.428 2.292,2.852     2.085,2.856 1.583,2.211 2.358,1.453 3.225,1.453 4.014,2.49 4.014,1.759 3.443,1.009   "></polygon></g><g><polygon fill="url(#SvgjsLinearGradient5665)" points="2.544,1.708 1.947,2.242 2.242,2.571 2.717,2.148 2.923,2.145 3.426,2.79 2.649,3.547     1.784,3.547 0.985,2.499 0.985,3.23 1.565,3.991 2.83,3.991 4.014,2.833 4.014,2.824 3.137,1.697   "></polygon></g></g></g><g id="SvgjsG5662" featureKey="nameFeature-0" transform="matrix(0.63742980087419,0,0,0.63742980087419,-1.7338080127890578,115.37378959729661)" fill="#ffffff"><path d="M33.92 40 l-6.8 0 l0.56 -22.72 l-6.28 22.72 l-6.12 0 l-6.24 -22.72 l0.56 22.72 l-6.88 0 l0 -28.24 l10.32 0 l5.32 19.76 l5.24 -19.76 l10.32 0 l0 28.24 z M46.4 40 l-7.04 0 l0 -28.24 l7.04 0 l0 28.24 z M77.4 40 l-7.52 0 l-1.4 -4.52 l-10.4 0 l-1.4 4.52 l-7.52 0 l10.48 -28.24 l7.36 0 z M66.88 30.4 l-3.68 -11.92 l-3.48 11.92 l7.16 0 z M104.48000000000002 32.12 c0 1.24 -0.4 4.16 -3.36 6.12 c-2.32 1.56 -5.04 1.76 -7.76 1.76 l-13.12 0 l0 -28.24 l11.6 0 c0.76 0 1.52 0 2.24 0.04 c2.92 0.12 6.04 0.48 7.96 3.04 c0.56 0.72 1.36 2.04 1.36 4.16 c0 3.68 -2.44 5.24 -3.68 5.8 c-0.68 0.28 -1.08 0.4 -2.36 0.68 c0.4 0.04 0.76 0.12 1.12 0.2 c3.32 0.6 4.68 2.12 5.36 3.52 c0.24 0.48 0.64 1.52 0.64 2.92 z M96.48000000000002 19.84 c0 -0.6 -0.12 -2.04 -1.84 -2.6 c-0.36 -0.12 -0.8 -0.2 -1.6 -0.2 l-6.08 0 l0 5.88 l5.32 0 c0.04 0 1.04 -0.04 1.6 -0.12 c1.6 -0.28 2.12 -1 2.36 -1.64 c0.08 -0.2 0.24 -0.68 0.24 -1.32 z M97.32000000000001 31.48 c0 -2.08 -1.16 -2.88 -1.96 -3.16 c-0.52 -0.2 -1.08 -0.28 -2.28 -0.28 l-6.12 0 l0 6.84 l4.92 0 c2.52 0 3.76 -0.28 4.68 -1.24 c0.32 -0.36 0.76 -1 0.76 -2.16 z M125.60000000000001 4.119999999999997 l-5.76 4.6 l-3.88 0 l2.44 -4.6 l7.2 0 z M130.72 40 l-22.16 0 l0 -28.24 l20.88 0 l0 5.44 l-13.84 0 l0 5.16 l12.92 0 l0 5.36 l-12.92 0 l0 6.72 l15.12 0 l0 5.56 z M145.16 30.52 l-11.96 0 l0 -5.72 l11.96 0 l0 5.72 z M172.8 30.84 c0 0.8 -0.08 2.48 -1.12 4.4 c-2.44 4.44 -7.52 5.04 -8.88 5.2 c-0.92 0.12 -1.88 0.2 -2.84 0.2 c-5.6 0 -8.76 -1.88 -10.64 -3.4 c-0.76 -0.64 -1.12 -1.04 -2.24 -2.36 l5.36 -3.36 c0.12 0.12 0.68 0.76 1.24 1.2 c1.84 1.52 4.56 2.36 6.92 2.36 c0.32 0 1.28 0 2.2 -0.28 c0.2 -0.04 3 -0.84 3 -3 c0 -2.6 -3.76 -2.68 -6.28 -3.04 c-1.32 -0.16 -2.68 -0.4 -4 -0.72 c-2.04 -0.52 -3.92 -1.28 -5.32 -2.96 c-0.28 -0.32 -0.84 -1.04 -1.2 -2.08 c-0.12 -0.4 -0.36 -1.32 -0.36 -2.48 c0 -0.24 0.04 -1.16 0.16 -1.96 c0.32 -1.8 1.08 -3.24 2.44 -4.52 c1.4 -1.32 4.16 -2.96 8.8 -2.96 c1.72 0 5.48 0.2 9.32 2.8 c0.96 0.64 1.52 1.12 3.12 2.52 l-5.2 3.72 c-1.56 -1.52 -2.64 -2.4 -4.76 -3.08 c-0.36 -0.08 -1.44 -0.4 -2.64 -0.4 c-2.88 0 -4.2 1.68 -4.2 3 c0 0.76 0.4 1.28 0.6 1.48 c0.96 1.04 2.52 1 5.16 1.4 c1.6 0.24 3.16 0.56 4.72 0.92 c1 0.2 4.64 0.92 6.08 4.36 c0.2 0.52 0.56 1.6 0.56 3.04 z M201.52 33.6 c-0.84 1.28 -1.44 2.12 -1.84 2.6 c-1.28 1.44 -4.8 4.64 -10.32 4.64 c-1 0 -3.32 -0.12 -5.76 -1.2 c-7.44 -3.36 -7.8 -11.56 -7.8 -13.8 c0 -1.72 0.2 -6.16 3.44 -10.08 c1.28 -1.6 4.48 -4.88 10.24 -4.88 c3.8 0 7.48 1.56 9.96 4.4 c1.04 1.2 1.68 2.44 1.96 2.92 l-5.56 2.76 c-0.4 -0.8 -0.68 -1.24 -0.92 -1.56 c-0.52 -0.76 -2.24 -2.72 -5.12 -2.72 c-0.8 0 -2.68 0.16 -4.28 1.68 c-1.16 1.08 -2.68 3.44 -2.68 7.32 c0 0.36 0 1.04 0.12 1.92 c0.48 3.88 2.16 5.64 3.72 6.52 c0.52 0.32 1.6 0.8 3.12 0.8 c3.96 0 5.48 -3.08 6.12 -4.16 z M229.56000000000003 40 l-7.08 0 l0 -12.04 l-10.32 0 l0 12.04 l-7.12 0 l0 -28.24 l7.16 0 l0 10.2 l10.28 0 l0 -10.2 l7.08 0 l0 28.24 z M262.28000000000003 26.08 c0 4.32 -1.88 8.96 -5.36 11.8 c-1.52 1.24 -4.24 2.96 -8.88 2.96 c-1.72 0 -6.4 -0.28 -10 -4.04 c-3.8 -4 -4.04 -9.36 -4.04 -11.04 c0 -1.48 0.2 -5.48 2.68 -9.12 c1.44 -2.12 4.72 -5.76 11.28 -5.76 c5.36 0 8.6 2.4 10.08 3.92 c2.72 2.8 4.24 7.4 4.24 11.28 z M255.20000000000002 26.560000000000002 c0.12 -3.56 -0.96 -5.96 -1.8 -7.12 c-0.36 -0.48 -1.2 -1.48 -2.72 -2.12 c-1.2 -0.48 -2.24 -0.52 -2.72 -0.52 c-1.56 0 -2.64 0.52 -3.16 0.8 c-2.84 1.6 -3.84 5.08 -3.84 8.08 c0 3.84 1.2 5.92 2.36 7.16 c1.24 1.32 2.92 2.04 4.76 2.04 c0.92 0 3.12 -0.24 4.88 -2.12 c1.6 -1.72 2.16 -3.96 2.24 -6.2 z M293.96 26.08 c0 4.32 -1.88 8.96 -5.36 11.8 c-1.52 1.24 -4.24 2.96 -8.88 2.96 c-1.72 0 -6.4 -0.28 -10 -4.04 c-3.8 -4 -4.04 -9.36 -4.04 -11.04 c0 -1.48 0.2 -5.48 2.68 -9.12 c1.44 -2.12 4.72 -5.76 11.28 -5.76 c5.36 0 8.6 2.4 10.08 3.92 c2.72 2.8 4.24 7.4 4.24 11.28 z M286.88 26.560000000000002 c0.12 -3.56 -0.96 -5.96 -1.8 -7.12 c-0.36 -0.48 -1.2 -1.48 -2.72 -2.12 c-1.2 -0.48 -2.24 -0.52 -2.72 -0.52 c-1.56 0 -2.64 0.52 -3.16 0.8 c-2.84 1.6 -3.84 5.08 -3.84 8.08 c0 3.84 1.2 5.92 2.36 7.16 c1.24 1.32 2.92 2.04 4.76 2.04 c0.92 0 3.12 -0.24 4.88 -2.12 c1.6 -1.72 2.16 -3.96 2.24 -6.2 z M316.48 40 l-18.08 0 l0 -28.24 l7.04 0 l0 22.28 l11.04 0 l0 5.96 z"></path></g>
			</g>
		</svg>
	