
        <svg xmlns="http://www.w3.org/2000/svg" xmlns:xlink="http://www.w3.org/1999/xlink" version="1.1" width="3250" 
        height="987.5" viewBox="0 0 3250 987.5">
			
			<g transform="scale(12.5) translate(10, 10)">
				<defs id="SvgjsDefs1531"></defs><g id="SvgjsG1532" featureKey="rootContainer" transform="matrix(1,0,0,1,0,0)" fill="#ffffff"><rect xmlns="http://www.w3.org/2000/svg" width="240" height="59" rx="10" ry="10"></rect></g><g id="SvgjsG1533" featureKey="nameFeature-0" transform="matrix(0.4982561112135375,0,0,0.4982561112135375,18.16641783385254,18.26606872347341)" fill="#127780"><path d="M3.68 40 l0 -28.88 l12.96 0 l8.52 21.44 l9 -21.44 l12.52 0 l0 28.88 l-7.92 0 l0 -23.52 l-0.08 0 l-9.56 23.52 l-8.64 0 l-9.6 -23.52 l-0.08 0 l0 23.52 l-7.12 0 z M53.56 40 l0 -28.88 l8.4 0 l0 28.88 l-8.4 0 z M91.39999999999999 28.92 l-5.72 -12.2 l-5.92 12.2 l11.64 0 z M65.72 40 l15.32 -28.88 l10.04 0 l15 28.88 l-9.4 0 l-2.72 -5.72 l-16.8 0 l-2.8 5.72 l-8.64 0 z M110.64 40 l0 -28.88 l17 0 c7.68 0 10.76 3.44 10.76 7.12 c0 3.28 -2.4 5.84 -6.12 6.76 l0 0.08 c4.48 0.4 7.36 3.16 7.36 6.84 c0 3.92 -2.8 8.08 -11.96 8.08 l-17.04 0 z M118.8 28.04 l0 6.6 l7.52 0 c2.64 0 4.68 -0.72 4.68 -3.28 c0 -2.4 -2.2 -3.32 -4.28 -3.32 l-7.92 0 z M118.8 16.48 l0 6.44 l5.24 0 c3.6 0 5.72 -1 5.72 -3.24 c0 -2.4 -1.8 -3.2 -5.04 -3.2 l-5.92 0 z M146.2 40 l0 -28.88 l24.8 0 l0 5.92 l-16.4 0 l0 5.36 l15.52 0 l0 5.92 l-15.52 0 l0 5.76 l16.76 0 l0 5.92 l-25.16 0 z M154.39999999999998 9.079999999999998 l4.48 -5.6 l8.4 0 l-6.56 5.6 l-6.32 0 z M177.43999999999997 31.880000000000003 l0 -5.12 l12.48 0 l0 5.12 l-12.48 0 z M194.75999999999996 30.64 l8.4 0 c0.08 3.68 1.76 4.52 5.68 4.52 c4.96 0 5.72 -1.76 5.72 -3.04 c0 -1.92 -2 -2.56 -5.32 -3.2 l-4.12 -0.8 c-4.76 -0.92 -9.76 -2.68 -9.76 -8.2 c0 -7.08 6.56 -9.56 13.16 -9.56 c10.56 0 13.56 3.24 13.84 9 l-8.16 0 c-0.24 -2.96 -2.64 -3.4 -5.16 -3.4 c-3.68 0 -5.28 1.24 -5.28 2.84 c0 1.96 2.64 2.48 5.72 3.12 l3.88 0.8 c5.28 1.08 9.6 2.8 9.6 8.52 c0 8.04 -8.12 9.52 -14.6 9.52 c-11.64 0 -13.6 -5 -13.6 -10.12 z M258.91999999999996 20.6 l-8.64 0 c-0.44 -3.2 -3.04 -4.32 -6.24 -4.32 c-5.48 0 -8.12 3.84 -8.12 9.12 c0 5.12 2.2 9.44 7.88 9.44 c3.2 0 6.12 -1.12 6.4 -4.64 l8.88 0 c-0.36 8.52 -7.4 10.56 -16.12 10.56 c-8.64 0 -15.68 -4.4 -15.68 -15.16 c0 -10.84 6.72 -15.24 17.04 -15.24 c7.36 0 14.48 2.6 14.6 10.24 z M264.47999999999996 40 l0 -28.88 l8.4 0 l0 11.48 l14.2 0 l0 -11.48 l8.4 0 l0 28.88 l-8.4 0 l0 -11.48 l-14.2 0 l0 11.48 l-8.4 0 z M309.99999999999994 25.560000000000002 c0 5.08 2.12 9.28 8.52 9.28 s8.52 -4.2 8.52 -9.28 s-2.12 -9.28 -8.52 -9.28 s-8.52 4.2 -8.52 9.28 z M301.35999999999996 25.560000000000002 c0 -8.72 5.08 -15.2 17.16 -15.2 s17.16 6.48 17.16 15.2 s-5.08 15.2 -17.16 15.2 s-17.16 -6.48 -17.16 -15.2 z M348.55999999999995 25.560000000000002 c0 5.08 2.12 9.28 8.52 9.28 s8.52 -4.2 8.52 -9.28 s-2.12 -9.28 -8.52 -9.28 s-8.52 4.2 -8.52 9.28 z M339.91999999999996 25.560000000000002 c0 -8.72 5.08 -15.2 17.16 -15.2 s17.16 6.48 17.16 15.2 s-5.08 15.2 -17.16 15.2 s-17.16 -6.48 -17.16 -15.2 z M380.35999999999996 40 l0 -28.88 l8.4 0 l0 22.96 l16.32 0 l0 5.92 l-24.72 0 z"></path></g>
			</g>
		</svg>
	